<?xml version="1.0" encoding="UTF-8" standalone="no"?>
<!DOCTYPE svg PUBLIC "-//W3C//DTD SVG 1.1//EN" "http://www.w3.org/Graphics/SVG/1.1/DTD/svg11.dtd">
<!-- Created with Vectornator (http://vectornator.io/) -->
<svg height="100%" stroke-miterlimit="10" style="fill-rule:nonzero;clip-rule:evenodd;stroke-linecap:round;stroke-linejoin:round;" version="1.1" viewBox="0 0 300 35" width="100%" xml:space="preserve" xmlns="http://www.w3.org/2000/svg" xmlns:vectornator="http://vectornator.io" xmlns:xlink="http://www.w3.org/1999/xlink">
<defs/>
<g id="layer1" vectornator:layerName="layer1">
<g opacity="1" vectornator:layerName="g">
<g opacity="1" vectornator:layerName="g">
<path d="M119.311 15.826C119.311 14.8129 118.843 12.931 116.789 12.931C114.88 12.931 114.124 14.7045 114.015 15.826C114.015 15.826 119.311 15.826 119.311 15.826ZM114.088 20.2413C114.304 21.6525 116.357 22.4489 118.663 22.4489C120.32 22.4489 121.905 22.2675 123.49 21.7609L124.318 26.1043C122.193 26.936 119.888 27.2258 117.69 27.2258C111.458 27.2258 107.927 23.7877 107.927 18.142C107.927 14.0166 110.593 8.66067 117.114 8.66067C122.842 8.66067 125.291 12.8951 125.291 17.7804C125.291 18.83 125.147 19.8066 125.039 20.2413C125.039 20.2413 114.088 20.2413 114.088 20.2413Z" fill="#e30005" fill-rule="nonzero" opacity="1" stroke="none" vectornator:layerName="path"/>
<path d="M128.208 15.1386C128.208 12.7502 128.136 10.7234 128.064 9.05884L133.684 9.05884L133.972 11.3389L134.081 11.3389C134.728 10.3977 136.458 8.66067 139.412 8.66067C143.555 8.66067 145.824 11.4838 145.824 16.3691L145.824 26.8641L139.304 26.8641L139.304 17.1654C139.304 15.1027 138.619 13.9082 137.035 13.9082C135.773 13.9082 135.197 14.7764 134.909 15.4644C134.765 15.7895 134.728 16.2966 134.728 16.7673L134.728 26.8641L128.208 26.8641C128.208 26.8641 128.208 15.1386 128.208 15.1386Z" fill="#e30005" fill-rule="nonzero" opacity="1" stroke="none" vectornator:layerName="path"/>
<path d="M161.242 16.7673C161.242 16.514 161.242 16.1877 161.207 15.9344C160.955 14.668 160.018 13.6549 158.649 13.6549C156.487 13.6549 155.515 15.6093 155.515 17.9253C155.515 20.6754 156.848 22.0872 158.613 22.0872C159.945 22.0872 160.918 21.146 161.134 19.9515C161.242 19.5898 161.242 19.1917 161.242 18.7575C161.242 18.7575 161.242 16.7673 161.242 16.7673ZM167.763 1.13365L167.763 21.2544C167.763 23.462 167.835 25.6696 167.907 26.8641L162.107 26.8641L161.855 24.4751L161.783 24.4751C160.63 26.466 158.469 27.2623 156.452 27.2623C152.344 27.2623 148.922 23.6788 148.922 18.1061C148.886 12.0987 152.669 8.66067 156.848 8.66067C158.792 8.66067 160.378 9.23967 161.171 10.3977L161.242 10.3977L161.242 1.13365C161.242 1.13365 167.763 1.13365 167.763 1.13365Z" fill="#e30005" fill-rule="nonzero" opacity="1" stroke="none" vectornator:layerName="path"/>
<path d="M182.28 15.826C182.28 14.8129 181.812 12.931 179.758 12.931C177.849 12.931 177.092 14.7045 176.984 15.826C176.984 15.826 182.28 15.826 182.28 15.826ZM177.057 20.2413C177.272 21.6525 179.326 22.4489 181.631 22.4489C183.288 22.4489 184.874 22.2675 186.459 21.7609L187.287 26.1043C185.162 26.936 182.857 27.2258 180.659 27.2258C174.426 27.2258 170.897 23.7877 170.897 18.142C170.897 14.0166 173.562 8.66067 180.082 8.66067C185.81 8.66067 188.26 12.8951 188.26 17.7804C188.26 18.83 188.116 19.8066 188.008 20.2413C188.008 20.2413 177.057 20.2413 177.057 20.2413Z" fill="#e30005" fill-rule="nonzero" opacity="1" stroke="none" vectornator:layerName="path"/>
<path d="M200.652 18.7216C197.986 18.7216 196.509 19.4449 196.509 21.0376C196.509 22.1591 197.23 22.7387 198.346 22.7387C199.283 22.7387 200.255 22.0872 200.58 21.1095C200.652 20.8203 200.652 20.4945 200.652 20.1688C200.652 20.1688 200.652 18.7216 200.652 18.7216ZM206.956 22.5208C206.956 24.2943 207.064 25.9594 207.244 26.8641L201.373 26.8641L201.048 25.308L200.904 25.308C199.68 26.7192 197.915 27.2623 196.004 27.2623C192.367 27.2623 190.133 24.62 190.133 21.6525C190.133 16.8756 194.42 14.7405 200.436 14.7405L200.436 14.5956C200.436 13.8717 199.895 13.0753 197.518 13.0753C195.644 13.0753 193.699 13.7268 192.511 14.3782L191.394 10.2893C192.511 9.67436 195.069 8.66067 198.743 8.66067C204.831 8.66067 206.956 12.0622 206.956 16.514C206.956 16.514 206.956 22.5208 206.956 22.5208Z" fill="#e30005" fill-rule="nonzero" opacity="1" stroke="none" vectornator:layerName="path"/>
<path d="M215.783 9.05884L217.692 16.6224C218.052 18.0336 218.304 19.409 218.52 20.8203L218.629 20.8203C218.844 19.3731 219.06 18.1061 219.42 16.6224L221.186 9.05884L227.995 9.05884L221.546 26.8641L215.026 26.8641L208.722 9.05884C208.722 9.05884 215.783 9.05884 215.783 9.05884Z" fill="#e30005" fill-rule="nonzero" opacity="1" stroke="none" vectornator:layerName="path"/>
<path d="M238.369 22.6657C240.134 22.6657 241.071 20.8203 241.071 17.9612C241.071 15.5003 240.278 13.2567 238.369 13.2567C236.207 13.2567 235.487 15.6093 235.487 17.9612C235.487 20.6394 236.351 22.6657 238.333 22.6657C238.333 22.6657 238.369 22.6657 238.369 22.6657ZM238.189 27.2623C232.893 27.2623 228.786 23.8967 228.786 18.1061C228.786 12.4245 232.496 8.66067 238.549 8.66067C244.096 8.66067 247.772 12.4245 247.772 17.7804C247.772 24.2583 243.159 27.2623 238.225 27.2623C238.225 27.2623 238.189 27.2623 238.189 27.2623Z" fill="#e30005" fill-rule="nonzero" opacity="1" stroke="none" vectornator:layerName="path"/>
<path d="M250.869 15.0662C250.869 12.2436 250.833 10.5426 250.724 9.05884L256.272 9.05884L256.524 12.2796L256.669 12.2796C257.605 9.56539 259.839 8.66067 261.388 8.66067C261.964 8.66067 262.216 8.66067 262.685 8.76963L262.685 14.8848C262.216 14.7764 261.712 14.7045 261.027 14.7045C259.118 14.7045 257.821 15.5003 257.461 16.9481C257.425 17.2373 257.39 17.6355 257.39 18.0702L257.39 26.8641L250.869 26.8641C250.869 26.8641 250.869 15.0662 250.869 15.0662Z" fill="#e30005" fill-rule="nonzero" opacity="1" stroke="none" vectornator:layerName="path"/>
<path d="M265.567 21.3628C266.575 21.9783 268.881 22.7022 270.466 22.7022C271.871 22.7022 272.412 22.4124 272.412 21.725C272.412 21.0735 272.015 20.8203 270.106 20.2047C266.179 18.9749 264.847 16.8391 264.882 14.7764C264.882 11.2299 267.908 8.66066 272.591 8.66066C274.753 8.66066 276.699 9.16721 277.851 9.67436L276.807 14.089C275.978 13.6908 274.321 13.1118 272.879 13.1118C271.763 13.1118 271.115 13.4016 271.115 14.1249C271.115 14.7045 271.69 15.0662 273.78 15.7542C277.275 16.8756 278.608 18.7216 278.643 21.2544C278.643 24.6565 276.014 27.2258 270.538 27.2258C268.053 27.2258 265.855 26.6827 264.45 25.9594C264.45 25.9594 265.567 21.3628 265.567 21.3628Z" fill="#e30005" fill-rule="nonzero" opacity="1" stroke="none" vectornator:layerName="path"/>
<path d="M113.862 26.4798C109.842 25.0367 107.962 22.0414 108.254 17.547C108.592 12.3521 112.056 8.97944 117.075 8.96077C122.101 8.94204 125.012 12.1988 125.012 17.8419L125.012 20.2221L119.429 20.2221C113.496 20.2221 113.207 20.314 114.978 21.638C115.751 22.2165 116.309 22.2945 119.633 22.2885L123.41 22.2818L123.756 23.9584C123.947 24.8806 124.02 25.7691 123.92 25.9329C123.35 26.8591 116.028 27.2572 113.862 26.4798C113.862 26.4798 113.862 26.4798 113.862 26.4798ZM119.297 15.2191C119.297 13.9282 118.15 12.8861 116.73 12.8861C115.795 12.8861 115.369 13.094 114.721 13.8674C114.269 14.4072 113.899 15.1248 113.899 15.4622C113.899 16.0194 114.147 16.0756 116.598 16.0756L119.297 16.0756C119.297 16.0756 119.297 15.2191 119.297 15.2191Z" fill="#e30005" fill-rule="evenodd" opacity="1" stroke="#4e4d52" stroke-linecap="round" stroke-linejoin="bevel" stroke-width="0.182881" vectornator:layerName="path"/>
<path d="M128.503 21.8966C128.503 19.3091 128.409 15.362 128.296 13.1253L128.089 9.05862L130.796 9.05862L133.503 9.05862L133.711 10.3639L133.919 11.6692L135.149 10.5525C137.262 8.63504 140.943 8.35227 143.085 9.94283C143.535 10.277 144.261 11.1836 144.697 11.9575C145.462 13.3123 145.495 13.6102 145.598 19.9828L145.705 26.6012L142.502 26.6012L139.3 26.6012L139.3 20.86C139.3 15.544 139.253 15.0715 138.665 14.4809C137.809 13.6216 136.09 13.6383 135.301 14.5134C134.762 15.1104 134.685 15.8099 134.596 20.8925L134.497 26.6012L131.501 26.6012L128.505 26.6012L128.503 21.8966L128.503 21.8966Z" fill="#e30005" fill-rule="evenodd" opacity="1" stroke="#4e4d52" stroke-linecap="round" stroke-linejoin="bevel" stroke-width="0.182881" vectornator:layerName="path"/>
<path d="M236.614 26.8952C233.604 26.4583 231.169 24.8293 229.932 22.4256C228.518 19.6788 228.791 15.4273 230.555 12.7235C233.142 8.7599 239.667 7.62235 243.804 10.4138C246.509 12.2387 247.747 15.0092 247.49 18.6598C247.096 24.2558 242.485 27.7474 236.614 26.8952ZM239.811 22.2282C241.23 20.8022 241.647 17.4839 240.703 15.1159C240.421 14.4056 239.93 13.685 239.613 13.5147C238.6 12.9702 237.241 13.1629 236.499 13.9559C235.262 15.2785 235.058 19.4716 236.133 21.4888C236.832 22.8011 238.839 23.2045 239.811 22.2282C239.811 22.2282 239.811 22.2282 239.811 22.2282Z" fill="#e30005" fill-rule="evenodd" opacity="1" stroke="#4e4d52" stroke-linecap="round" stroke-linejoin="bevel" stroke-width="0.182881" vectornator:layerName="path"/>
</g>
<g opacity="1" vectornator:layerName="g">
<g opacity="1" vectornator:layerName="g">
<path d="M2.28141e-07 1.13365L6.52058 1.13365L6.52058 10.9407L6.5927 10.9407C7.16906 10.2168 7.88937 9.67436 8.68209 9.27618C9.47452 8.87801 10.4472 8.66067 11.3839 8.66067C15.3827 8.66067 17.616 11.5191 17.616 16.5499L17.616 26.8641L11.0957 26.8641L11.0957 17.2738C11.0957 15.1746 10.4112 13.9082 8.78998 13.9082C7.56513 13.9082 6.98877 14.6315 6.66453 15.3195C6.55664 15.6093 6.52058 16.0793 6.52058 16.3691L6.52058 26.8641L0 26.8641C0 26.8641 0 1.13365 2.28141e-07 1.13365Z" fill="#414143" fill-rule="nonzero" opacity="1" stroke="none" vectornator:layerName="path"/>
<path d="M21.5784 26.8641L21.5784 9.05884L28.099 9.05884L28.099 26.8641L21.5784 26.8641ZM24.8208 7.21346C22.8033 7.21346 21.5427 5.83752 21.5427 4.13704C21.5427 2.32759 22.8393 1.02469 24.8569 1.02469C26.8742 1.02469 28.1351 2.32759 28.1711 4.13704C28.1711 5.83752 26.8742 7.21346 24.8569 7.21346C24.8569 7.21346 24.8208 7.21346 24.8208 7.21346Z" fill="#414143" fill-rule="nonzero" opacity="1" stroke="none" vectornator:layerName="path"/>
<path d="M43.0847 16.405C43.0847 16.1158 43.0487 15.826 43.0126 15.5727C42.7244 14.2698 41.896 13.5465 40.7072 13.5465C39.1581 13.5465 37.8251 15.0662 37.8251 17.8887C37.8251 20.2047 38.906 21.9058 40.7072 21.9058C41.896 21.9058 42.7605 21.1095 42.9766 20.1329C43.0847 19.7706 43.0847 19.1916 43.0847 18.7935C43.0847 18.7935 43.0847 16.405 43.0847 16.405ZM49.5693 24.2583C49.5693 27.3707 48.9568 30.3381 46.7953 32.2195C44.7778 33.957 42.076 34.4271 39.3384 34.4271C36.8887 34.4271 34.4029 33.957 32.7457 33.0888L33.9705 28.167C35.0514 28.782 37.0687 29.4694 39.086 29.4694C41.3917 29.4694 43.1929 28.203 43.1929 25.4529L43.1929 24.6565L43.1208 24.6565C42.0402 25.9953 40.455 26.6468 38.6899 26.6468C34.3669 26.6468 31.2327 23.1722 31.2327 17.9971C31.2327 12.3885 34.8351 8.66067 39.2663 8.66067C41.4278 8.66067 42.9047 9.49294 43.8414 10.9767L43.9132 10.9767L44.1296 9.05884L49.7132 9.05884C49.6411 10.1809 49.5693 11.7006 49.5693 14.5231C49.5693 14.5231 49.5693 24.2583 49.5693 24.2583Z" fill="#414143" fill-rule="nonzero" opacity="1" stroke="none" vectornator:layerName="path"/>
<path d="M53.5675 1.13365L60.088 1.13365L60.088 10.9407L60.1602 10.9407C60.7365 10.2168 61.4568 9.67436 62.2495 9.27618C63.042 8.87801 64.0147 8.66067 64.9514 8.66067C68.9501 8.66067 71.1835 11.5191 71.1835 16.5499L71.1835 26.8641L64.6632 26.8641L64.6632 17.2738C64.6632 15.1746 63.9786 13.9082 62.3574 13.9082C61.1326 13.9082 60.5562 14.6315 60.232 15.3195C60.1241 15.6093 60.088 16.0793 60.088 16.3691L60.088 26.8641L53.5675 26.8641C53.5675 26.8641 53.5675 1.13365 53.5675 1.13365Z" fill="#414143" fill-rule="nonzero" opacity="1" stroke="none" vectornator:layerName="path"/>
<path d="M85.6652 15.826C85.6652 14.8129 85.1968 12.931 83.1434 12.931C81.234 12.931 80.4777 14.7045 80.3695 15.826C80.3695 15.826 85.6652 15.826 85.6652 15.826ZM80.4416 20.2413C80.6577 21.6525 82.711 22.4489 85.0168 22.4489C86.6737 22.4489 88.2589 22.2675 89.844 21.7609L90.6725 26.1043C88.547 26.936 86.2416 27.2258 84.044 27.2258C77.8119 27.2258 74.2813 23.7877 74.2813 18.142C74.2813 14.0166 76.9471 8.66067 83.4677 8.66067C89.1955 8.66067 91.6452 12.8951 91.6452 17.7804C91.6452 18.83 91.501 19.8066 91.3931 20.2413C91.3931 20.2413 80.4416 20.2413 80.4416 20.2413Z" fill="#414143" fill-rule="nonzero" opacity="1" stroke="none" vectornator:layerName="path"/>
<path d="M94.5622 15.0662C94.5622 12.2436 94.5264 10.5426 94.4183 9.05884L99.9661 9.05884L100.218 12.2796L100.362 12.2796C101.299 9.56539 103.532 8.66067 105.082 8.66067C105.658 8.66067 105.91 8.66067 106.378 8.76963L106.378 14.8848C105.91 14.7764 105.406 14.7045 104.721 14.7045C102.812 14.7045 101.515 15.5003 101.155 16.9481C101.119 17.2373 101.083 17.6355 101.083 18.0702L101.083 26.8641L94.5622 26.8641C94.5622 26.8641 94.5622 15.0662 94.5622 15.0662Z" fill="#414143" fill-rule="nonzero" opacity="1" stroke="none" vectornator:layerName="path"/>
</g>
<g opacity="1" vectornator:layerName="g">
<g opacity="1" vectornator:layerName="g">
<path d="M285.408 23.293L285.993 26.4265L295.385 26.5249L296.165 23.0968C293.143 23.75 292.297 22.9007 291.973 22.8035C291.226 23.2606 289.437 24.0763 285.408 23.293Z" fill="#414143" fill-rule="nonzero" opacity="1" stroke="none" vectornator:layerName="path"/>
<path d="M286.936 14.1844C288.658 16.8939 288.398 17.6779 287.131 19.5386C288.463 19.7671 289.925 19.4408 290.316 19.31C289.665 19.1793 288.398 19.1145 287.943 19.2123C289.145 16.9599 288.105 14.6739 286.936 14.1844ZM295.125 14.1191C292.639 16.3897 294.475 18.4937 294.897 19.31C293.598 20.9752 292.297 22.7381 288.658 23.0644C285.019 23.3907 283.491 21.7256 282.906 19.9627C281.443 18.8206 281.671 17.1878 282.614 14.7723C281.996 12.8138 282.744 11.5404 285.474 10.6586C285.474 10.6586 287.683 10.2015 289.276 10.9525C290.868 11.7035 291.843 11.475 293.532 10.8223C295.222 10.1691 297.009 10.4307 298.31 11.2794C299.61 12.1282 299.642 14.5437 299.187 15.164C300.227 16.6984 300.422 18.82 298.862 20.6813C298.699 22.9007 294.312 23.293 292.46 22.509C293.76 21.4323 295.385 19.2447 295.385 19.2447C295.385 19.2447 292.915 17.1878 295.125 14.1191Z" fill="#414143" fill-rule="nonzero" opacity="1" stroke="none" vectornator:layerName="path"/>
<path d="M288.463 8.70013C287.493 7.1363 286.415 4.61944 288.529 1.90998C291.193-0.636917 293.402 1.41992 293.825 1.90998C294.248 2.39945 296.132 4.815 294.182 8.21066C292.233 11.6057 290.771 12.4221 288.463 8.70013Z" fill="#414143" fill-rule="nonzero" opacity="1" stroke="none" vectornator:layerName="path"/>
<path d="M294.819 3.71236C294.527 1.93707 293.003 0.572917 291.182 0.572917C289.356 0.572917 287.83 1.94355 287.542 3.72532C287.175 4.87095 287.287 5.94413 287.592 6.87949C287.973 8.86093 289.441 11.2382 291.182 11.2382C292.911 11.2382 294.372 8.89156 294.765 6.91836C295.186 5.64374 295.084 4.55347 294.819 3.71236Z" fill="#414143" fill-rule="nonzero" opacity="1" stroke="none" vectornator:layerName="path"/>
</g>
<path d="M289.395 10.0129C288.42 8.96462 287.492 6.60006 287.492 5.1641C287.492 2.95859 289.263 0.765778 291.044 0.765778C294.281 0.765778 295.777 4.53503 294.032 8.29898C292.745 11.0769 290.988 11.7261 289.395 10.0129Z" fill="#414143" fill-rule="evenodd" opacity="1" stroke="#4e4d52" stroke-linecap="round" stroke-linejoin="bevel" stroke-width="0.182881" vectornator:layerName="path"/>
</g>
</g>
</g>
</g>
</svg>
